<svg xmlns="http://www.w3.org/2000/svg" xmlns:xlink="http://www.w3.org/1999/xlink" width="78.225" height="67.862" viewBox="0 0 78.225 67.862">
  <defs>
    <filter id="Path_11" x="0" y="0" width="78.225" height="67.862" filterUnits="userSpaceOnUse">
      <feOffset dy="3" input="SourceAlpha"/>
      <feGaussianBlur stdDeviation="3" result="blur"/>
      <feFlood flood-opacity="0.161"/>
      <feComposite operator="in" in2="blur"/>
      <feComposite in="SourceGraphic"/>
    </filter>
  </defs>
  <g id="Group_128" data-name="Group 128" transform="translate(-145.27 -91.309)">
    <g transform="matrix(1, 0, 0, 1, 145.27, 91.31)" filter="url(#Path_11)">
      <path id="Path_11-2" data-name="Path 11" d="M5426.328,14152.27c4.812-4.059,9.618-7.936,10.733-13.749s3.273-11.528,0-15.789c-1.7-5.024-2.032-6.011-4.468-9.43-1.493-2.089-4.025-6.416-8.767-7.357-12.007-2.38-12.886-3.2-15.782-2.328-1.574.468-12.3,1.024-17.925,4.038-4.539,2.441-11.986,11.038-11.528,15.077,1.005,8.852,5.11,12.752,8.6,15.789s5.439,12.761,13.153,9.464S5421.516,14156.331,5426.328,14152.27Z" transform="translate(-5369.57 -14097.28)" fill="#3cc195"/>
    </g>
    <g id="Group_14" data-name="Group 14" transform="translate(164.549 105.075)">
      <path id="Path_1" data-name="Path 1" d="M975.51,530.073c-2.868,7.771-10.109,9.319-15.355,4.928-.673-.563-3.551,1.318-4.228-1.112-2.011-.1-3.95-.524-5.3-2.274,4.068-1.156,9.013-3.78,13.018-3.921C967.562,527.557,971.546,529.207,975.51,530.073Z" transform="translate(-931.572 -494.557)"/>
      <path id="Path_2" data-name="Path 2" d="M915.766,456.945l4.656,1.175c-.051.1-.126.439-.268.47-2.989.64-2.9,3.112-3.2,5.344a3.345,3.345,0,0,0,.064,1.137c1.315,5.9,1.949,6.207,7.466,4.073a22.643,22.643,0,0,1,7.331-1.53c2.726-.084,5.312-.16,7.618-1.79a1.165,1.165,0,0,1,1.147-.027c-.459.482-.838,1.235-1.392,1.4a24.41,24.41,0,0,1-6.371,1.473,21,21,0,0,0-9.026,1.857,14.978,14.978,0,0,1-5.536,1.208c-4.7.253-8.439,1.759-10.059,6.608a.645.645,0,0,1-.227.3,2.426,2.426,0,0,1-.53.171,3.382,3.382,0,0,1-.032-1.215c.384-.99-.081-1.388-.926-1.688a8.02,8.02,0,0,1-4.714-4.682c-.359-.81-1.291-1.366-1.978-2.054l3.5-1.4a3.286,3.286,0,0,1-.184,1.1c-.931,1.607-.09,3.013.9,3.949a15.227,15.227,0,0,0,4.036,2.238c.195.093.72-.252.945-.519a10.608,10.608,0,0,1,7.465-3.741,4.054,4.054,0,0,0,1-.435,18.336,18.336,0,0,1-1.064-3.217,20.2,20.2,0,0,1-.238-5.1c.2-1.7,1.2-3.357-.459-4.855C915.64,457.147,915.789,456.871,915.766,456.945Z" transform="translate(-899.791 -450.32)"/>
      <path id="Path_3" data-name="Path 3" d="M964.716,493a4.946,4.946,0,0,0,4.107,4c-3.405.106-6.241.9-7.586,4.365-1.4-2.616-3.878-1.961-6-1.9a6.573,6.573,0,0,0-5.348,3.82c-3.2-2.512-6.276-2.147-9.256.748l-.391-.665,2.8-3.232a44.073,44.073,0,0,0,6.407.5,5.056,5.056,0,0,0,4.5-4.685c1.477,3.28,4.129,2.481,6.455,2.439a7.312,7.312,0,0,0,3-1.026,1.705,1.705,0,0,0,.872-2.532,4.45,4.45,0,0,1-.16-1.535Z" transform="translate(-925.083 -472.87)"/>
      <path id="Path_4" data-name="Path 4" d="M968.518,441.957c-1.266,4.327,1.006,8.047,1.5,12.053h-3.8c-.029-.135-.069-.239-.052-.249,2.9-1.7,1.934-4.077,1.192-6.468C966.655,445.037,967.029,443.3,968.518,441.957Z" transform="translate(-941.287 -440.957)"/>
      <path id="Path_5" data-name="Path 5" d="M923.969,467.826l-4.149,2.508c.024.024-.151-.106-.133-.141,1.213-2.439-.442-4.567-.711-6.843a25.982,25.982,0,0,1-.02-3.033l.659-.061c.15.814.289,1.631.453,2.442C920.531,464.986,920.378,467.76,923.969,467.826Z" transform="translate(-911.749 -452.398)"/>
      <path id="Path_6" data-name="Path 6" d="M991.681,463.2a11.594,11.594,0,0,1-.733-2.361c-.165-1.757-.163-3.53-.226-5.224l3.385,1.2c-.592.753-1.611,1.547-1.9,2.548a11.962,11.962,0,0,0,.088,3.652Z" transform="translate(-956.643 -449.497)"/>
      <path id="Path_7" data-name="Path 7" d="M1019.454,474.346a7.959,7.959,0,0,0-2.133-8.523C1020.89,466.708,1022.159,471.914,1019.454,474.346Z" transform="translate(-973.274 -455.879)"/>
      <path id="Path_8" data-name="Path 8" d="M930.954,443.914c-.106-2.012,1.308-2.58,2.6-3.118,1.434-.6,2.96-1.027,4.813.537C935.346,441.419,932.739,441.542,930.954,443.914Z" transform="translate(-919.271 -439.892)"/>
      <path id="Path_9" data-name="Path 9" d="M991.995,440.648l-4.6-.273.125-.809c1.676-.7,3.068,0,4.358,1.2Z" transform="translate(-954.56 -439.288)"/>
      <path id="Path_10" data-name="Path 10" d="M1017.072,517.355l3.433-2.525C1020.571,516.554,1019.3,517.636,1017.072,517.355Z" transform="translate(-973.118 -486.519)"/>
    </g>
    <path id="Path_12" data-name="Path 12" d="M5435.725,14214.706c-1.023.2-5.254,2.021-5.516,1.875-.74-.152,4.331-2.252,9.222-3.361a19.24,19.24,0,0,1,5.169-.285c3.662.207,10.275,2.133,10.275,2.133s-1.395,3.223-4.179,3.023c-1.427-.1-3.055-2.988-5.178-3.023-1.047-.014-1.679-.906-3.2-1.043A27.748,27.748,0,0,0,5435.725,14214.706Z" transform="translate(-5246.423 -14075.495)" fill="#3cc195"/>
  </g>
</svg>
